<?xml version="1.0" ?><!DOCTYPE svg  PUBLIC '-//W3C//DTD SVG 1.1//EN'  'http://www.w3.org/Graphics/SVG/1.1/DTD/svg11.dtd'><svg enable-background="new 0 0 24 24" height="24px" id="Layer_1" version="1.1" viewBox="0 0 24 24" width="24px" xml:space="preserve" xmlns="http://www.w3.org/2000/svg" xmlns:xlink="http://www.w3.org/1999/xlink"><g><polygon points="2.7,22.8 4.2,21.8 2.9,21  "/><path d="M12.5,7.8l-1.6-0.9c0,0,0,0-0.1,0c0,0-0.1,0-0.1,0l-7.4,13l0,0.2L5,21C5,21,5,21,5.1,21l7.4-13C12.5,7.9,12.5,7.9,12.5,7.8   z"/><path d="M6.9,11.5H1.6l-0.1,2.9c0,0.1,0.1,0.3,0.1,0.4H5L6.9,11.5z"/><path d="M20.7,20.2l-0.4,0.3c0,0,0,0,0,0c-0.2,0.2-0.2,0.4,0.1,0.9c0.3,0.4,0.8,0.6,1.3,0.8c0.1,0,0.2,0.1,0.3,0.1   c0-0.8-0.2-1.6-0.5-2C21.3,20.2,21,20.1,20.7,20.2z"/><path d="M11.7,11.5l-1.9,3.3h5.6c-0.4-0.8-0.9-1.9-1.5-3.3H11.7z"/><path d="M17.8,11.5c0.1,0.3,0.3,0.5,0.4,0.8l0.5,1l0.1,0.1l0.7,1.2c0,0.1,0.1,0.1,0.1,0.2h2.7c0.1-0.1,0.1-0.3,0.1-0.4v-2.9   L17.8,11.5z"/><path d="M20.4,19.3c0.1-0.1,0.1-0.2,0.1-0.3l-0.8-1.5c0-0.1-0.1-0.1-0.2-0.1l-0.3,0.2c-0.1,0.1-0.2,0.1-0.4,0.2l-0.1,0.1   c0,0,0,0-0.1,0l-0.1,0.1c-0.1,0.1-0.1,0.1,0,0.2l1,1.5c0,0.1,0.1,0.1,0.2,0.1c0,0,0,0,0,0c0,0,0,0,0,0c0,0,0.1-0.1,0.1-0.1   c0.1-0.1,0.2-0.1,0.3-0.1L20.4,19.3z"/><path d="M19.1,16.3c0-0.1,0-0.1,0-0.3c0,0,0-0.1,0-0.1c-0.1-0.1-0.2-0.4-0.4-0.8l-0.6-1.2c0,0,0-0.1,0-0.1l-0.1-0.1   c0-0.1-0.1-0.1-0.1-0.2l-0.3-0.6c0,0,0-0.1-0.1-0.1c-1.6-3-2.7-5-3.4-6.1c-0.5-0.7-0.9-1.6-1.4-2.4c-0.6-1-1.3-2.3-1.9-3.1   c0.3,1.3,1.5,3.9,2,5.1l0.2,0.5c0,0.1,0,0.1,0,0.2L13,7c0.4,0.3,0.6,0.8,0.5,1.2c0,0,0,0,0,0c2,4.7,3.8,8.3,4.2,8.7   c0.3,0.1,0.4,0.1,0.6,0l0.6-0.3C18.9,16.5,19.1,16.4,19.1,16.3z"/></g></svg>